<svg t="1743573987143" class="icon" viewBox="0 0 1024 1024" version="1.1" xmlns="http://www.w3.org/2000/svg" p-id="2062" width="16" height="16"><path d="M512 0c282.7776 0 512 229.2224 512 512s-229.2224 512-512 512S0 794.7776 0 512 229.2224 0 512 0z m0 76.8a435.2 435.2 0 1 0 0 870.4 435.2 435.2 0 0 0 0-870.4z m-26.88 189.5936a36.0448 36.0448 0 0 1 51.0976 0.4608l209.4592 213.248a36.5056 36.5056 0 0 1 17.408 25.7536 36.4032 36.4032 0 0 1-10.0352 33.28l-221.2352 217.1904a36.096 36.096 0 1 1-50.5856-51.5072l160.256-157.4912H402.0224a36.1472 36.1472 0 0 1 0-72.2944h237.4144L484.6592 317.44a36.0448 36.0448 0 0 1 0.512-51.0464z m-244.224 208.64a36.1472 36.1472 0 1 1 0 72.2944 36.1472 36.1472 0 0 1 0-72.2944z" fill="#1296db" p-id="2063"></path></svg>