<svg t="1743573966510" class="icon" viewBox="0 0 1024 1024" version="1.1" xmlns="http://www.w3.org/2000/svg" p-id="1724" width="16" height="16"><path d="M512 0c282.7776 0 512 229.2224 512 512s-229.2224 512-512 512S0 794.7776 0 512 229.2224 0 512 0z m0 76.8a435.2 435.2 0 1 0 0 870.4 435.2 435.2 0 0 0 0-870.4zM399.0016 254.7712a25.6 25.6 0 0 1 15.9744 5.632l299.1616 239.3088a25.6 25.6 0 0 1 0 39.936l-299.1616 239.36a25.6 25.6 0 0 1-41.5744-19.968V280.32a25.6 25.6 0 0 1 25.6-25.6z m51.2 132.096v265.5744l165.9904-132.7616-165.9904-132.7616z" fill="#0e932e" p-id="1725"></path></svg>